<svg width="1173" height="1173" viewBox="0 0 1173 1173" fill="none" xmlns="http://www.w3.org/2000/svg">
<path d="M586.5 810C709.936 810 810 709.936 810 586.5C810 463.064 709.936 363 586.5 363C463.064 363 363 463.064 363 586.5C363 709.936 463.064 810 586.5 810Z" stroke="#242324"/>
<path d="M586.5 888C753.014 888 888 753.014 888 586.5C888 419.986 753.014 285 586.5 285C419.986 285 285 419.986 285 586.5C285 753.014 419.986 888 586.5 888Z" stroke="#242324"/>
<path d="M586.5 980C803.824 980 980 803.824 980 586.5C980 369.176 803.824 193 586.5 193C369.176 193 193 369.176 193 586.5C193 803.824 369.176 980 586.5 980Z" stroke="#242324"/>
<path d="M586.5 1172C909.863 1172 1172 909.863 1172 586.5C1172 263.137 909.863 1 586.5 1C263.137 1 1 263.137 1 586.5C1 909.863 263.137 1172 586.5 1172Z" stroke="#242324"/>
</svg>
